#!OML:ASF F:\VICON\USERDATA\INSTALL\rory3\rory3.ASF
:FULLY-SPECIFIED
:DEGREES
464
root -0.0222795 18.0837 46.2203 -6.68055 -4.45092 6.81959
lowerback 16.1159 -0.744288 -6.90721
upperback 0.173946 -2.21686 0.694676
thorax -8.59156 -0.761298 5.18747
lowerneck -8.42117 -0.0107869 -2.42469
upperneck 28.3569 0.84359 -1.67115
head 10.4429 -0.0840589 -0.0865183
rclavicle 2.97183e-014 -3.18055e-015
rhumerus -37.4516 -10.3359 -79.0479
rradius 28.9106
rwrist 3.71586
rhand -13.1079 8.84834
rfingers 7.12502
rthumb 12.9892 -20.7273
lclavicle 2.97183e-014 -3.18055e-015
lhumerus -35.1853 0.281809 82.9447
lradius 45.8808
lwrist 10.1741
lhand -14.5146 51.0187
lfingers 7.12502
lthumb 11.6329 80.6758
rfemur -25.0062 5.68297 14.2085
rtibia 24.4357
rfoot -15.3653 -15.7856
rtoes -1.25637
lfemur 17.7337 -3.44355 -31.9932
ltibia 11.6628
lfoot -10.9181 1.8561
ltoes -24.1858
465
root -0.103477 18.0893 46.3735 -6.68351 -5.12205 4.88823
lowerback 16.2726 -0.856377 -5.8323
upperback 0.616328 -2.09771 1.4232
thorax -8.21792 -0.75942 5.33616
lowerneck -10.307 0.231861 -2.06052
upperneck 28.8878 1.30291 -2.04481
head 11.0216 0.100244 -0.230507
rclavicle -3.20043e-014 1.74931e-014
rhumerus -36.1449 -10.8048 -78.9946
rradius 27.9084
rwrist 4.48352
rhand -12.9827 10.8261
rfingers 7.12502
rthumb 13.1098 -18.7418
lclavicle -3.20043e-014 1.74931e-014
lhumerus -34.3993 1.14473 82.7263
lradius 45.5405
lwrist 10.0331
lhand -14.5484 51.5659
lfingers 7.12502
lthumb 11.6003 81.2248
rfemur -24.3148 8.19381 16.3663
rtibia 24.184
rfoot -15.1443 -17.338
rtoes -0.694877
lfemur 18.1926 -3.45297 -29.7134
ltibia 11.975
lfoot -10.7184 2.08068
ltoes -24.6621
466
root -0.106433 18.072 46.5694 -6.68838 -3.6132 6.95357
lowerback 16.0499 -1.29956 -7.52781
upperback 0.552494 -3.03578 0.822812
thorax -7.98767 -1.16866 5.84218
lowerneck -10.879 0.383426 -1.85405
upperneck 29.1196 1.56872 -2.28492
head 11.2301 0.205769 -0.320842
rclavicle -8.69683e-015 1.98785e-014
rhumerus -35.8887 -10.6585 -78.9502
rradius 27.7388
rwrist 4.60434
rhand -12.805 10.1232
rfingers 7.12502
rthumb 13.2812 -19.4336
lclavicle -8.69683e-015 1.98785e-014
lhumerus -34.5362 1.849 82.6403
lradius 45.3648
lwrist 9.1542
lhand -14.9157 53.2564
lfingers 7.12502
lthumb 11.2461 82.935
rfemur -23.4812 5.79882 14.0603
rtibia 23.9742
rfoot -15.3322 -16.3438
rtoes -5.72894
lfemur 18.6609 -4.11549 -32.1232
ltibia 12.2616
lfoot -10.4871 1.57024
ltoes -24.9967
467
root -0.148465 18.1079 46.744 -6.63757 -3.3686 5.8466
lowerback 15.9259 -1.5362 -6.52949
upperback 0.613309 -3.12011 1.23693
thorax -7.86537 -1.24695 5.73305
lowerneck -11.3268 0.376912 -1.89438
upperneck 29.2836 1.62874 -2.41701
head 11.3865 0.206166 -0.354722
rclavicle 3.12589e-014 1.59028e-015
rhumerus -35.8296 -10.4968 -78.7592
rradius 27.7818
rwrist 4.40641
rhand -12.7778 9.63487
rfingers 7.12502
rthumb 13.3073 -19.9203
lclavicle 3.12589e-014 1.59028e-015
lhumerus -34.577 2.32371 82.824
lradius 45.013
lwrist 8.3265
lhand -13.8876 52.4316
lfingers 7.12502
lthumb 12.2375 82.0536
rfemur -22.3464 5.78936 15.4034
rtibia 23.1417
rfoot -12.8269 -16.2254
rtoes -0.217374
lfemur 18.4439 -4.54166 -30.8758
ltibia 13.8796
lfoot -10.6979 1.36512
ltoes -24.7215
468
root -0.191388 18.1419 46.917 -6.52695 -3.02924 5.28476
lowerback 15.6595 -1.64851 -5.95448
upperback -0.0651456 -3.14703 1.47952
thorax -8.46927 -1.23234 5.68671
lowerneck -9.09531 0.223244 -2.17579
upperneck 29.1867 1.41429 -2.53804
head 10.8994 0.0819207 -0.379509
rclavicle -4.04775e-014 3.18055e-015
rhumerus -37.5352 -10.3474 -77.9837
rradius 28.0099
rwrist 4.08614
rhand -12.8661 10.0926
rfingers 7.12502
rthumb 13.2223 -19.468
lclavicle -4.04775e-014 3.18055e-015
lhumerus -36.1276 2.01453 83.3117
lradius 44.6434
lwrist 8.26254
lhand -14.024 52.4383
lfingers 7.12502
lthumb 12.1059 82.0681
rfemur -21.9049 5.79117 16.0484
rtibia 23.1882
rfoot -11.2732 -17.3169
rtoes 10.8271
lfemur 18.8955 -4.90185 -30.1655
ltibia 13.9025
lfoot -9.93203 0.933855
ltoes -24.8152
469
root -0.265903 18.1742 47.0163 -6.03124 -3.80167 3.18463
lowerback 16.0438 -1.49445 -4.43888
upperback -0.54117 -2.61375 2.28709
thorax -9.30886 -0.976492 5.6299
lowerneck -8.541 0.125832 -2.25293
upperneck 29.3738 1.33994 -2.77324
head 10.8627 0.0127273 -0.461861
rclavicle -2.20154e-014 3.26007e-014
rhumerus -38.1813 -10.5303 -77.3904
rradius 28.1552
rwrist 3.97322
rhand -12.8458 10.4301
rfingers 7.12502
rthumb 13.2419 -19.1293
lclavicle -2.20154e-014 3.26007e-014
lhumerus -36.6466 1.93717 83.7245
lradius 44.1999
lwrist 8.29311
lhand -14.2741 52.6336
lfingers 7.12502
lthumb 11.8648 82.2775
rfemur -21.8491 8.10986 18.4106
rtibia 22.2472
rfoot -9.16058 -19.5603
rtoes 10.4659
lfemur 17.9531 -4.9788 -27.5828
ltibia 15.3224
lfoot -9.44529 0.992542
ltoes -26.2151
470
root -0.285805 18.1938 47.2323 -6.0322 -3.17444 3.92613
lowerback 14.7452 -1.60135 -4.74633
upperback -0.432765 -2.7828 2.0116
thorax -8.43105 -1.09059 5.46275
lowerneck -7.82649 -0.0496193 -2.47376
upperneck 29.3667 1.07575 -2.68256
head 10.7159 -0.115097 -0.42084
rclavicle -5.26034e-014 1.27222e-014
rhumerus -38.4955 -11.0845 -76.811
rradius 28.1253
rwrist 3.83503
rhand -12.842 10.3891
rfingers 7.12502
rthumb 13.2455 -19.1701
lclavicle -5.26034e-014 1.27222e-014
lhumerus -36.7545 1.69125 84.1202
lradius 43.7873
lwrist 7.95474
lhand -13.7127 52.8227
lfingers 7.12502
lthumb 12.4061 82.4346
rfemur -21.0496 6.69552 17.6761
rtibia 21.9678
rfoot -7.71753 -18.7992
rtoes 12.959
lfemur 18.236 -5.51065 -28.5378
ltibia 16.1646
lfoot -9.17747 0.72789
ltoes -27.8003
471
root -0.327274 18.2196 47.3906 -5.8306 -3.49913 3.12476
lowerback 15.8285 -1.61345 -4.03841
upperback -1.6693 -2.6954 2.33325
thorax -10.443 -0.966489 5.5082
lowerneck -6.21591 0.0418366 -2.65436
upperneck 29.9646 1.16362 -2.63582
head 10.6245 -0.0914742 -0.367795
rclavicle 4.28878e-014 -7.95139e-015
rhumerus -40.5907 -10.5937 -76.0969
rradius 28.1669
rwrist 3.51075
rhand -13.0059 10.113
rfingers 7.12502
rthumb 13.0875 -19.4563
lclavicle 4.28878e-014 -7.95139e-015
lhumerus -39.027 1.90259 84.3017
lradius 43.5994
lwrist 7.61406
lhand -13.1987 52.6613
lfingers 7.12502
lthumb 12.9017 82.2425
rfemur -20.6112 7.15203 18.6544
rtibia 21.6147
rfoot -6.84544 -19.1467
rtoes 13.9592
lfemur 17.9487 -5.71132 -27.6381
ltibia 17.2417
lfoot -8.72351 0.628624
ltoes -28.446
472
root -0.353589 18.2424 47.5889 -5.91938 -3.47648 3.21092
lowerback 14.0863 -1.81113 -4.18949
upperback 0.464065 -2.90991 2.28278
thorax -7.08401 -1.2409 5.38851
lowerneck -11.7004 0.11933 -1.99045
upperneck 30.4755 1.46005 -2.85718
head 11.9382 0.0389626 -0.533094
rclavicle 2.64384e-014 -5.56597e-015
rhumerus -36.433 -11.7437 -76.9708
rradius 27.5821
rwrist 3.65937
rhand -13.0764 9.86635
rfingers 7.12502
rthumb 13.0195 -19.7074
lclavicle 2.64384e-014 -5.56597e-015
lhumerus -35.0511 2.91731 84.1403
lradius 42.6059
lwrist 7.49516
lhand -13.538 52.0094
lfingers 7.12502
lthumb 12.5745 81.611
rfemur -19.9207 6.3484 18.7229
rtibia 21.7538
rfoot -5.99862 -18.437
rtoes 15.1601
lfemur 18.3521 -5.85438 -27.804
ltibia 17.8499
lfoot -7.91835 0.369089
ltoes -29.3774
473
root -0.379078 18.2634 47.7436 -5.68964 -3.62188 2.88996
lowerback 12.7915 -1.83873 -3.70573
upperback 1.19391 -2.82463 2.33049
thorax -5.61262 -1.27924 5.04689
lowerneck -12.7466 0.0878455 -1.77661
upperneck 30.2977 1.42285 -2.93917
head 12.0855 0.0320644 -0.604731
rclavicle 4.12975e-014 -3.89618e-014
rhumerus -35.154 -12.5096 -76.9876
rradius 27.2769
rwrist 3.56703
rhand -13.2538 10.1706
rfingers 7.12502
rthumb 12.8485 -19.4139
lclavicle 4.12975e-014 -3.89618e-014
lhumerus -33.7546 3.07442 84.3527
lradius 41.8339
lwrist 7.33824
lhand -13.6964 51.4847
lfingers 7.12502
lthumb 12.4218 81.0956
rfemur -19.9712 5.61656 19.2717
rtibia 22.3474
rfoot -5.26774 -17.6756
rtoes 16.7424
lfemur 18.3376 -5.94541 -27.4092
ltibia 18.3249
lfoot -6.64577 0.0668262
ltoes -29.6321
474
root -0.449624 18.2828 47.8818 -5.70423 -4.48829 1.99098
lowerback 14.3833 -1.53696 -3.29508
upperback 0.0860554 -2.37155 2.76525
thorax -7.73828 -0.971202 5.32699
lowerneck -11.7466 0.125079 -1.77925
upperneck 30.931 1.49029 -3.04906
head 12.1341 0.0434854 -0.642751
rclavicle 2.09221e-014 -3.26007e-014
rhumerus -36.7208 -12.6385 -76.0806
rradius 26.8869
rwrist 3.68837
rhand -13.4178 10.4171
rfingers 7.12502
rthumb 12.6904 -19.1774
lclavicle 2.09221e-014 -3.26007e-014
lhumerus -35.7179 3.16294 84.6157
lradius 41.3967
lwrist 7.02639
lhand -13.5517 51.1492
lfingers 7.12502
lthumb 12.5613 80.7516
rfemur -19.5475 6.71641 20.6425
rtibia 22.2659
rfoot -4.80849 -18.1503
rtoes 18.4808
lfemur 17.7971 -5.45527 -26.0813
ltibia 19.971
lfoot -5.70224 -0.360789
ltoes -29.2018
475
root -0.435223 18.2959 48.0748 -6.01736 -3.72063 4.32474
lowerback 13.5341 -1.55288 -4.72289
upperback 0.186843 -2.66198 1.89635
thorax -7.09729 -1.10228 5.21087
lowerneck -10.9577 -0.0133874 -1.66962
upperneck 30.4788 1.23833 -3.10496
head 11.7866 -0.0479072 -0.710172
rclavicle 1.55549e-014 9.54166e-015
rhumerus -37.3322 -13.0919 -75.6344
rradius 27.2015
rwrist 3.41487
rhand -13.3958 10.2413
rfingers 7.12502
rthumb 12.7117 -19.3518
lclavicle 1.55549e-014 9.54166e-015
lhumerus -35.9444 2.84664 84.9526
lradius 40.9792
lwrist 6.82794
lhand -13.4491 51.1876
lfingers 7.12502
lthumb 12.6603 80.7839
rfemur -18.8685 3.13115 18.2479
rtibia 22.7727
rfoot -4.29162 -14.8125
rtoes 17.8693
lfemur 17.7599 -5.81859 -28.915
ltibia 21.3806
lfoot -4.5846 -0.711863
ltoes -29.5544
476
root -0.526974 18.3285 48.1863 -5.65163 -5.51802 0.923623
lowerback 15.2155 -1.21069 -2.1929
upperback -1.00231 -1.71355 3.17041
thorax -9.49267 -0.617565 5.08427
lowerneck -9.74972 0.000136396 -2.03399
upperneck 31.0533 1.2642 -2.9619
head 11.765 -0.062786 -0.595148
rclavicle 8.29926e-015 -1.35174e-014
rhumerus -39.4835 -12.4296 -74.7953
rradius 27.6535
rwrist 3.09811
rhand -13.3827 10.0421
rfingers 7.12502
rthumb 12.7243 -19.5502
lclavicle 8.29926e-015 -1.35174e-014
lhumerus -38.3265 3.08063 85.2673
lradius 41.0849
lwrist 6.60779
lhand -13.6276 51.1753
lfingers 7.12502
lthumb 12.4882 80.7822
rfemur -18.8574 5.96473 22.4761
rtibia 23.0127
rfoot -4.79246 -15.5358
rtoes 18.8193
lfemur 16.7323 -4.84423 -24.5278
ltibia 23.256
lfoot -3.19976 -1.43753
ltoes -29.9773
477
root -0.52741 18.3407 48.3452 -5.64225 -5.29068 2.46713
lowerback 13.9059 -1.14653 -3.22152
upperback -0.414179 -1.83511 2.68525
thorax -8.07564 -0.695304 5.08702
lowerneck -9.89169 -0.0687879 -2.13973
upperneck 30.2994 1.15976 -2.9101
head 11.4943 -0.100896 -0.562541
rclavicle -5.41688e-015 7.95139e-016
rhumerus -38.4293 -13.2091 -74.5794
rradius 27.2038
rwrist 3.225
rhand -13.528 10.0533
rfingers 7.12502
rthumb 12.5842 -19.5477
lclavicle -5.41688e-015 7.95139e-016
lhumerus -37.5993 3.2069 85.5931
lradius 40.7801
lwrist 6.32125
lhand -13.4926 51.2081
lfingers 7.12502
lthumb 12.6183 80.807
rfemur -18.7779 4.03427 20.8935
rtibia 23.7617
rfoot -4.82714 -13.0732
rtoes 18.5406
lfemur 16.1275 -4.84639 -26.2334
ltibia 24.6601
lfoot -1.18051 -1.84919
ltoes -29.0522
